<svg xmlns="http://www.w3.org/2000/svg" version="1.1" xmlns:xlink="http://www.w3.org/1999/xlink" xmlns:svgjs="http://svgjs.dev/svgjs" width="1440" height="570" preserveAspectRatio="none" viewBox="0 0 1440 570"><g mask="url(&quot;#SvgjsMask1665&quot;)" fill="none"><rect width="1440" height="570" x="0" y="0" fill="#0e2a47"></rect><path d="M368.15 370.28L371.77 370.28L371.77 373.9L368.15 373.9z" fill="#e73635"></path><path d="M108.24 557.56a29.27 29.27 0 1 0 49.38-31.44z" stroke="#e73635"></path><path d="M1254.22 489.11 a50.68 50.68 0 1 0 101.36 0 a50.68 50.68 0 1 0 -101.36 0z" fill="#037b0b"></path><path d="M558.07 213.41 a55.08 55.08 0 1 0 110.16 0 a55.08 55.08 0 1 0 -110.16 0z" fill="#e73635"></path><path d="M434.35 210.28 a27.96 27.96 0 1 0 55.92 0 a27.96 27.96 0 1 0 -55.92 0z" fill="#e73635"></path><path d="M970.44 160.25 a20.28 20.28 0 1 0 40.56 0 a20.28 20.28 0 1 0 -40.56 0z" stroke="#037b0b"></path><path d="M265.07 287.33L272.7 287.33L272.7 313.14L265.07 313.14z" stroke="#e73635"></path><path d="M1328.15 353.9L1366.68 353.9L1366.68 392.43L1328.15 392.43z" stroke="#e73635"></path><path d="M795.64 203.76a19.61 19.61 0 1 0-24.39-30.7z" stroke="#d3b714"></path><path d="M36.54 278.3L82.55 278.3L82.55 326.04L36.54 326.04z" stroke="#d3b714"></path><path d="M649.28 338.92 a33.21 33.21 0 1 0 66.42 0 a33.21 33.21 0 1 0 -66.42 0z" stroke="#037b0b"></path><path d="M239.52 459a12.41 12.41 0 1 0 9.49 22.94z" stroke="#d3b714"></path><path d="M1271.55 139.05 a9.08 9.08 0 1 0 18.16 0 a9.08 9.08 0 1 0 -18.16 0z" fill="#d3b714"></path><path d="M475.91 134.58L529.96 134.58L529.96 183.24L475.91 183.24z" fill="#037b0b"></path><path d="M287.6 102.92L333.22 102.92L333.22 115.6L287.6 115.6z" fill="#e73635"></path><path d="M1334.43 456.05L1384.7 456.05L1384.7 506.32L1334.43 506.32z" stroke="#037b0b"></path><path d="M327.72 480.79 a34.26 34.26 0 1 0 68.52 0 a34.26 34.26 0 1 0 -68.52 0z" fill="#d3b714"></path><path d="M1040.42 145.37L1065.27 145.37L1065.27 182.91L1040.42 182.91z" stroke="#d3b714"></path><path d="M349.23 319.85L385.81 319.85L385.81 373.12L349.23 373.12z" stroke="#d3b714"></path><path d="M1037.71 532.39L1079.44 532.39L1079.44 553.69L1037.71 553.69z" fill="#e73635"></path><path d="M868.52 271.41L869.28 271.41L869.28 272.17L868.52 272.17z" fill="#e73635"></path><path d="M969.28 450.35 a13.64 13.64 0 1 0 27.28 0 a13.64 13.64 0 1 0 -27.28 0z" fill="#037b0b"></path><path d="M360.56 479.57a1.32 1.32 0 1 0-1.27-2.31z" fill="#e73635"></path><path d="M377.18 0.23a41.38 41.38 0 1 0-81.6 13.79z" fill="#037b0b"></path><path d="M242.46 264.59a20 20 0 1 0-28.26 28.31z" stroke="#d3b714"></path><path d="M504.69 452.46 a24.36 24.36 0 1 0 48.72 0 a24.36 24.36 0 1 0 -48.72 0z" fill="#037b0b"></path><path d="M858.29 284.04L912.4 284.04L912.4 308.82L858.29 308.82z" fill="#d3b714"></path><path d="M1331.05 31.28L1358.39 31.28L1358.39 48.2L1331.05 48.2z" fill="#d3b714"></path><path d="M104.59 229.93 a42.67 42.67 0 1 0 85.34 0 a42.67 42.67 0 1 0 -85.34 0z" stroke="#e73635"></path><path d="M510.82 206.37a33 33 0 1 0-28.81-59.38z" stroke="#037b0b"></path><path d="M504.93 126.43L557.53 126.43L557.53 179.03L504.93 179.03z" fill="#037b0b"></path><path d="M803.24 363.8 a11 11 0 1 0 22 0 a11 11 0 1 0 -22 0z" stroke="#037b0b"></path></g><defs><mask id="SvgjsMask1665"><rect width="1440" height="570" fill="#ffffff"></rect></mask></defs></svg>